<svg xmlns="http://www.w3.org/2000/svg" xmlns:xlink="http://www.w3.org/1999/xlink" version="1.1" width="373.47" height="138.24999" viewBox="0 0 373.47 138.24999">
<defs>
<clipPath id="clip_0">
<path transform="matrix(.24,0,0,.24,-1.53,-104.92999)" d="M0 0H1562.5V1562.5H0Z" fill-rule="evenodd"/>
</clipPath>
<clipPath id="clip_1">
<path transform="matrix(.24,0,0,.24,-1.53,-104.92999)" d="M0 0H1562.5V1562.5H0Z" fill-rule="evenodd"/>
</clipPath>
<clipPath id="clip_2">
<path transform="matrix(.24,0,0,.24,-1.53,-104.92999)" d="M0 426.5987H1562.5V1025.5012H0Z" fill-rule="evenodd"/>
</clipPath>
<clipPath id="clip_3">
<path transform="matrix(.24,0,0,.24,-1.53,-104.92999)" d="M0 0H1562.5V1562.5H0Z" fill-rule="evenodd"/>
</clipPath>
<path id="font_4_51" d="M.059570314 .8261719H.3605652C.44456993 .8261719 .51257327 .80448409 .5645752 .7611084 .61657717 .7177327 .6425781 .65466818 .6425781 .5719147 .6425781 .48916117 .616272 .42426048 .56365969 .37721253 .51104739 .33016459 .44345094 .30664063 .36087037 .30664063H.2480011V.00048828127H.059570314V.8261719M.2480011 .45703126H.30081178C.34267173 .45703126 .37705485 .46552024 .40396119 .48249818 .4308777 .4994761 .44433595 .52727767 .44433595 .5659027 .44433595 .605189 .4308777 .6333211 .40396119 .6502991 .37705485 .6672872 .34267173 .67578127 .30081178 .67578127H.2480011V.45703126Z"/>
<path id="font_4_82" d="M.10896301 .06074524C.051946004 .111475627 .0234375 .17655437 .0234375 .25598146 .0234375 .3354187 .053115846 .40066529 .112472537 .4517212 .17182923 .5027873 .2451884 .5283203 .33255006 .5283203 .41858927 .5283203 .49111939 .50261947 .5501404 .45121766 .6091614 .39982606 .6386719 .3347473 .6386719 .25598146 .6386719 .17721558 .6098277 .1122996 .5521393 .06123352 .4944509 .010177612 .4212545-.015350342 .33255006-.015350342 .24051921-.015350342 .16599019 .010014852 .10896301 .06074524M.24597168 .3431549C.22295125 .32044984 .21144104 .291392 .21144104 .25598146 .21144104 .22058106 .22244771 .19169109 .24446106 .16931153 .2664846 .14693196 .29551698 .13574219 .33155824 .13574219 .3662567 .13574219 .3947805 .14709473 .41712953 .1697998 .43948875 .19251506 .45066834 .22124227 .45066834 .25598146 .45066834 .291392 .4391581 .32044984 .4161377 .3431549 .39311729 .36587016 .3649241 .37722779 .33155824 .37722779 .29752098 .37722779 .2689921 .36587016 .24597168 .3431549Z"/>
<path id="font_4_85" d="M.059570314 0V.5136719H.23632813V.43933106H.23832703C.23965962 .44199626 .24182637 .44532777 .24482727 .44932557 .24782817 .45332337 .2543284 .46032206 .264328 .47032167 .2743276 .48032127 .2849935 .48931886 .29632569 .49731446 .30765788 .50532028 .32232157 .51248678 .34031678 .5188141 .35832215 .52515158 .3766581 .5283203 .3953247 .5283203 .4146627 .5283203 .43366496 .5256755 .45233155 .52038577 .47099815 .515096 .48466493 .50980636 .4933319 .5045166L.5073242 .4965973 .43333436 .34602357C.41133119 .36469016 .380661 .37402345 .34132386 .37402345 .31999208 .37402345 .30166117 .36935426 .28633119 .36001588 .2710012 .35068766 .26016746 .33935548 .25382997 .3260193 .24749248 .3126831 .24299114 .30134584 .24032593 .29200746 .23766072 .28267924 .23632813 .27534995 .23632813 .27001954V0H.059570314Z"/>
<path id="font_4_87" d="M.08984375 .5136719V.70458987H.26660157V.5136719H.375V.37890626H.26660157V.21565247C.26660157 .16823833 .27998863 .14453125 .3067627 .14453125 .31344605 .14453125 .3204651 .14586385 .32781983 .14852906 .33518473 .15120442 .34087626 .1538798 .3448944 .15655518L.35090638 .16055298 .39500428 .01739502C.35697938-.003967285 .31362406-.0146484379 .26493836-.0146484379 .23158264-.0146484379 .2029012-.008804321 .17889405 .0028839112 .15488689 .014572144 .13671367 .030258179 .12437439 .049942018 .11203512 .069636028 .10319519 .09033203 .097854617 .11203003 .09251404 .13372803 .08984375 .15692647 .08984375 .18162537V.37890626H.015625V.5136719H.08984375Z"/>
<path id="font_4_73" d="M.08984375 .5136719V.6227722C.08984375 .6994934 .107559207 .76087448 .14299011 .8069153 .17842102 .8529561 .22754924 .87597659 .29037477 .87597659 .31710816 .87597659 .3426768 .8721364 .3670807 .8644562 .3914846 .8567861 .4090322 .84894308 .4197235 .8409271L.43676759 .8299103 .37475587 .70474246C.35873414 .7140808 .3410441 .71875 .3216858 .71875 .2996521 .71875 .28496299 .71124777 .2776184 .6962433 .27027384 .68123885 .26660157 .6550598 .26660157 .6177063V.5136719H.38476563V.37890626H.26660157V.00048828127H.08984375V.37890626H.015625V.5136719H.08984375Z"/>
<path id="font_4_79" d="M.059570314 0V.86035159H.23632813V0H.059570314Z"/>
<path id="font_4_76" d="M.07737732 .79956057C.09803772 .82023116 .12270101 .8305664 .15136719 .8305664 .18003337 .8305664 .20469666 .82023116 .22535706 .79956057 .24601746 .77890017 .25634767 .75424197 .25634767 .72558596 .25634767 .69692996 .24601746 .67226669 .22535706 .65159609 .20469666 .63093569 .18003337 .62060549 .15136719 .62060549 .12270101 .62060549 .09803772 .63093569 .07737732 .65159609 .05671692 .67226669 .04638672 .69692996 .04638672 .72558596 .04638672 .75424197 .05671692 .77890017 .07737732 .79956057M.060546876 .5136719V0H.23730469V.5136719H.060546876Z"/>
<path id="font_4_68" d="M.09539795 .06324768C.047424318 .11564636 .0234375 .17989095 .0234375 .25598146 .0234375 .33207194 .047424318 .39648438 .09539795 .44921876 .14338176 .5019531 .2043457 .5283203 .2782898 .5283203 .34625245 .5283203 .40222169 .50704959 .4461975 .46450807V.5136719H.6230469V0H.4481964V.057891847H.4461975C.40222169 .009063721 .34625245-.015350342 .2782898-.015350342 .2043457-.015350342 .14338176 .010848999 .09539795 .06324768M.24589539 .3431549C.22292583 .32044984 .21144104 .291392 .21144104 .25598146 .21144104 .22058106 .22242737 .19169109 .24440003 .16931153 .26638285 .14693196 .29535423 .13574219 .3313141 .13574219 .36594139 .13574219 .39440919 .14709473 .41671754 .1697998 .43903605 .19251506 .4501953 .22124227 .4501953 .25598146 .4501953 .291392 .43870545 .32044984 .4157257 .3431549 .39275614 .36587016 .36461894 .37722779 .3313141 .37722779 .29734803 .37722779 .26887513 .36587016 .24589539 .3431549Z"/>
<path id="font_4_17" d="M.17381287 .21484375C.20588684 .21484375 .2331136 .20365398 .25549317 .18127442 .2778727 .15889485 .2890625 .13166809 .2890625 .099594119 .2890625 .0682017 .2778727 .041310628 .25549317 .018920899 .2331136-.003458659 .20588684-.0146484379 .17381287-.0146484379 .14241028-.0146484379 .1155192-.003458659 .09313965 .018920899 .07076009 .041310628 .059570314 .0682017 .059570314 .099594119 .059570314 .13166809 .07076009 .15889485 .09313965 .18127442 .1155192 .20365398 .14241028 .21484375 .17381287 .21484375Z"/>
<path id="font_5_116" d="M.69099429 .701004C.70433047 .70033267 .71566268 .6954956 .72499087 .6864929 .7343292 .6775004 .7389984 .66633608 .7389984 .6529999V.04800415C.7389984 .03466797 .7344971 .023330689 .7254944 .01399231 .7165019 .004664103 .7046712 0 .69000247 0 .6753337 0 .6633301 .0044962565 .6539917 .0134887699 .6446635 .022491456 .6399994 .033996583 .6399994 .04800415V.5110016L.44599916 .21699524C.44132997 .21099346 .435496 .20599365 .4284973 .20199585 .42149864 .19799805 .41433207 .19633484 .40699769 .19700623 .4003347 .19633484 .39350382 .19799805 .38650514 .20199585 .37950645 .20599365 .3736725 .21099346 .3690033 .21699524L.17399597 .5200043V.04800415C.17399597 .033996583 .16983032 .022491456 .16149903 .0134887699 .15316773 .0044962565 .14200337 0 .12800598 0 .1146698 0 .10383097 .0044962565 .0954895 .0134887699 .0871582 .022491456 .08299255 .033996583 .08299255 .04800415V.6529999C.08299255 .6656647 .087656658 .67682906 .09698486 .6864929 .10632324 .696167 .117996219 .701004 .13200379 .701004 .13999939 .701004 .14783223 .69900009 .15550232 .69499209 .16317241 .69099429 .16933696 .6856639 .17399597 .67900088L.41099549 .32000733 .651001 .67900088C.66167196 .6936696 .67500308 .701004 .69099429 .701004Z"/>
<path id="font_5_243" d="M.4960022 .53100588C.5099996 .53100588 .52149966 .5265045 .5305023 .51750186 .539505 .50849917 .54400637 .49666343 .54400637 .48199464V.04800415C.54400637 .03466797 .539505 .023330689 .5305023 .01399231 .52149966 .004664103 .5099996 0 .4960022 0 .4820048 0 .4706726 .0044962565 .46200563 .0134887699 .45333863 .022491456 .44900514 .033996583 .44900514 .04800415V.07400513C.43167115 .050669355 .40799967 .030832926 .37799073 .01449585 .34799195-.0018310547 .31566368-.009994507 .28100587-.009994507 .23566692-.009994507 .1944987 .0016682943 .15750122 .024993897 .120503749 .04832967 .09150187 .080830898 .070495609 .12249756 .04949951 .16416423 .039001466 .21099854 .039001466 .2630005 .039001466 .31500245 .04949951 .36183677 .070495609 .40350343 .09150187 .44517008 .1203359 .47766624 .15699768 .5009918 .19366963 .5243276 .23400371 .5359955 .27799989 .5359955 .31332908 .5359955 .3461609 .5286611 .37649537 .5139923 .40682984 .4993337 .43099977 .4806671 .44900514 .45799256V.48199464C.44900514 .4960022 .45333863 .5076701 .46200563 .5169983 .4706726 .52633669 .4820048 .53100588 .4960022 .53100588M.29200746 .07800293C.32333885 .07800293 .35117088 .086003627 .37550355 .102005008 .3998362 .118006389 .4188334 .14000447 .43249513 .16799927 .446167 .19600423 .45300294 .22767131 .45300294 .2630005 .45300294 .29766847 .446167 .32899986 .43249513 .35699464 .4188334 .3849996 .3998362 .40716554 .37550355 .42349244 .35117088 .4398295 .32333885 .44799806 .29200746 .44799806 .2606659 .44799806 .23282878 .43999736 .2084961 .42399598 .1841634 .4079946 .16516114 .38599143 .15148926 .35798646 .13782756 .32999168 .1309967 .29832969 .1309967 .2630005 .1309967 .22767131 .13782756 .19600423 .15148926 .16799927 .16516114 .14000447 .1841634 .118006389 .2084961 .102005008 .23282878 .086003627 .2606659 .07800293 .29200746 .07800293Z"/>
<path id="font_5_344" d="M.49899293 .08299255C.5090027 .07233175 .51400759 .060668947 .51400759 .04800415 .51400759 .03466797 .5088399 .023498536 .49850465 .01449585 .48816935 .0055033366 .4773356 .0010070801 .46600343 .0010070801 .45133464 .0010070801 .43966676 .006337484 .43099977 .016998291L.23399353 .22599793 .17399597 .17199707V.04800415C.17399597 .03466797 .16949463 .023330689 .16049195 .01399231 .15149944 .004664103 .14033509 0 .1269989 0 .1130015 0 .101501468 .004664103 .09249878 .01399231 .083496097 .023330689 .07899475 .03466797 .07899475 .04800415V.69200137C.07899475 .7053375 .083496097 .71666976 .09249878 .7259979 .101501468 .7353363 .1130015 .7400055 .1269989 .7400055 .14033509 .7400055 .15149944 .7353363 .16049195 .7259979 .16949463 .71666976 .17399597 .7053375 .17399597 .69200137V.28599549L.41900636 .5110016C.43033854 .52100118 .44200135 .526001 .45399476 .526001 .46532694 .526001 .47565715 .52116397 .48498536 .51148989 .49432374 .501826 .49899293 .4916636 .49899293 .4810028 .49899293 .46766664 .49266053 .45566813 .47999574 .44500733L.30700685 .29100038 .49899293 .08299255Z"/>
<path id="font_5_286" d="M.53100588 .28199769C.5303345 .27000428 .5253296 .25983683 .5159912 .25149537 .506663 .24316406 .4956665 .23899842 .4830017 .23899842H.1309967C.1356659 .19033306 .15416463 .15133159 .18649292 .12199402 .21883138 .092666629 .2583313 .07800293 .30499269 .07800293 .33699546 .07800293 .36299644 .08266703 .3829956 .09199524 .40299479 .10133362 .42066447 .1133372 .43600465 .12800598 .44600425 .1339976 .45566813 .13699341 .46499635 .13699341 .47632853 .13699341 .48582969 .1329956 .49349977 .125 .50116989 .117004398 .5050049 .107671108 .5050049 .09700012 .5050049 .083002727 .4983368 .07033793 .4850006 .059005739 .46566264 .039667768 .43999229 .023330689 .4079895 .009994507 .37599693-.0033315023 .34333293-.009994507 .30999757-.009994507 .2560018-.009994507 .20850118 .0013376871 .16749573 .024002076 .12650045 .046666463 .094833377 .07832845 .07249451 .11898804 .050165815 .15965779 .039001466 .20566304 .039001466 .25700379 .039001466 .31300355 .050501508 .36216737 .07350159 .40449525 .09650167 .44683329 .12683106 .4793345 .16448975 .5019989 .20215862 .52466329 .24266052 .5359955 .28599549 .5359955 .32866923 .5359955 .3686727 .5249939 .40600587 .5029907 .44333903 .4809977 .4733378 .45066834 .4960022 .41200257 .51866659 .3733368 .5303345 .33000184 .53100588 .28199769M.28599549 .44799806C.24866231 .44799806 .21632894 .4374949 .18899536 .41648866 .16166179 .39549256 .1436615 .36299644 .1349945 .31900025H.42999269V.32699586C.42666627 .3623352 .41083274 .39133708 .38249208 .41400147 .3541616 .43666587 .32199607 .44799806 .28599549 .44799806Z"/>
<path id="font_5_3" d="M0 0Z"/>
<path id="font_5_177" d="M.29499818-.009994507C.24633281-.009994507 .20333354-.0031636556 .16600037 .010498047 .12866719 .024169922 .09300232 .046335859 .059005739 .07699585 .04499817 .08899943 .037994386 .10266622 .037994386 .117996219 .037994386 .1299998 .04265849 .14083354 .051986696 .15049744 .061325075 .16016133 .07233175 .16499329 .085006717 .16499329 .096338909 .16499329 .10600281 .16133118 .11399841 .15400696 .14067078 .12933858 .1681722 .11117045 .19650269 .09950256 .22483318 .08783468 .2569987 .08200073 .29299928 .08200073 .33500163 .08200073 .37049867 .091664638 .39949037 .11099243 .42849223 .1303304 .44299317 .15466817 .44299317 .18400574 .44233195 .21866353 .42783103 .24549358 .39949037 .26449586 .37115989 .28349815 .32799784 .29933167 .27000428 .31199647 .20133972 .32599388 .14850362 .34899394 .11149597 .3809967 .0744985 .41299949 .055999757 .45733644 .055999757 .51400759 .055999757 .55333456 .066329959 .5878296 .08699036 .6174927 .10766093 .64716598 .1363271 .67000326 .17298889 .68600466 .20966085 .70200607 .25099693 .7100067 .29699708 .7100067 .33832804 .7100067 .37732444 .7033386 .4139862 .69000247 .45065818 .67666628 .48033143 .6589966 .503006 .6369934 .518336 .6236674 .526001 .6093343 .526001 .59399417 .526001 .58200076 .52149966 .57133486 .51249697 .56199648 .50349429 .5526683 .49266053 .54800418 .47999574 .54800418 .4706675 .54800418 .46300254 .5506694 .45700074 .55599978 .43966676 .57333377 .41566468 .58799746 .3849945 .59999087 .3543345 .61199447 .32500205 .6179962 .29699708 .6179962 .2523295 .6179962 .2168274 .60883077 .19049073 .5904999 .16416423 .572169 .15100098 .54800418 .15100098 .5180054 .15100098 .4853312 .16416423 .46032716 .19049073 .44299317 .2168274 .42566935 .2559967 .41100566 .30799867 .39900209 .3600006 .3876699 .40250144 .3743337 .4355011 .35899354 .46850077 .34366355 .4939982 .32233177 .5119934 .29499818 .5299988 .26766459 .53900149 .23199971 .53900149 .18800354 .53900149 .14933777 .5281677 .115000408 .50650027 .084991458 .48483277 .054992677 .45533244 .031661989 .41799928 .01499939 .3806661-.001663208 .33966575-.009994507 .29499818-.009994507Z"/>
<path id="font_5_356" d="M.6719971 .53300479C.7886658 .53300479 .8470001 .4603373 .8470001 .31500245V.04800415C.8470001 .033996583 .8426666 .022491456 .83399966 .0134887699 .82533267 .0044962565 .8140004 0 .80000308 0 .7860057 0 .7745056 .004664103 .7655029 .01399231 .75650027 .023330689 .7519989 .03466797 .7519989 .04800415V.31399537C.7519989 .40133668 .71533206 .44500733 .6419983 .44500733 .6159973 .44500733 .5924937 .43917338 .5714874 .4275055 .55049136 .41583763 .53415939 .40000407 .52249148 .38000489 .51083377 .3600057 .5050049 .33800254 .5050049 .31399537V.04800415C.5050049 .03466797 .50050356 .023330689 .49150086 .01399231 .48249818 .004664103 .47099815 0 .45700074 0 .44300334 0 .43167115 .0044962565 .42300416 .0134887699 .41433717 .022491456 .41000367 .033996583 .41000367 .04800415V.31500245C.41000367 .35432945 .40166728 .38582865 .3849945 .40950013 .3683319 .4331716 .34066773 .44500733 .30200196 .44500733 .2626648 .44500733 .23016358 .43250529 .20449829 .40750123 .17883301 .38249717 .16600037 .35166423 .16600037 .31500245V.04800415C.16600037 .03466797 .16149903 .023330689 .15249634 .01399231 .14350383 .004664103 .13200379 0 .117996219 0 .10399882 0 .092666629 .0044962565 .083999637 .0134887699 .07533264 .022491456 .070999149 .033996583 .070999149 .04800415V.47599793C.070999149 .4893341 .07550049 .5006663 .084503177 .5099945 .09350586 .5193329 .104670207 .5240021 .117996219 .5240021 .13200379 .5240021 .14350383 .5193329 .15249634 .5099945 .16149903 .5006663 .16600037 .4893341 .16600037 .47599793V.44099427C.18333435 .46699525 .20650228 .48883058 .23550415 .50650027 .264506 .5241699 .29600526 .53300479 .33000184 .53300479 .4126638 .53300479 .46632896 .4963379 .4909973 .42300416 .5056661 .45099894 .5299988 .47632853 .56399539 .49899293 .59800216 .5216675 .6340027 .53300479 .6719971 .53300479Z"/>
<path id="font_5_409" d="M.33200074 .5359955C.34933473 .5359955 .3643341 .53149417 .3769989 .52249148 .3896637 .51349899 .3959961 .5023346 .3959961 .4889984 .3959961 .47299705 .39183045 .4608307 .38349916 .4524994 .37516786 .4441681 .3650004 .44000245 .35299684 .44000245 .34699504 .44000245 .33799745 .44200135 .32600404 .44599916 .31199647 .45066834 .30099488 .45300294 .29299928 .45300294 .2723287 .45300294 .25216166 .4458364 .23249817 .4315033 .21283467 .4171702 .1968333 .39750163 .18449402 .37249757 .17216492 .34750367 .16600037 .31967164 .16600037 .28900147V.04800415C.16600037 .03466797 .16149903 .023330689 .15249634 .01399231 .14350383 .004664103 .13200379 0 .117996219 0 .10399882 0 .092666629 .0044962565 .083999637 .0134887699 .07533264 .022491456 .070999149 .033996583 .070999149 .04800415V.47599793C.070999149 .4893341 .07550049 .5006663 .084503177 .5099945 .09350586 .5193329 .104670207 .5240021 .117996219 .5240021 .13200379 .5240021 .14350383 .5193329 .15249634 .5099945 .16149903 .5006663 .16600037 .4893341 .16600037 .47599793V.42500306C.18066915 .45766703 .20266724 .48416648 .23199463 .50450137 .26133219 .52483627 .29466758 .5353343 .33200074 .5359955Z"/>
<path id="font_5_429" d="M.21299744 .43099977V.1329956C.21299744 .09966024 .22799683 .08299255 .2579956 .08299255 .2626648 .08299255 .2689972 .08415731 .2769928 .08648682 .28499858 .0888265 .29133607 .08999634 .29600526 .08999634 .30467225 .08999634 .31200157 .08632914 .31799317 .07899475 .32399497 .07166036 .32699586 .06232707 .32699586 .050994874 .32699586 .03699748 .31899516 .024998984 .30299378 .01499939 .28700257 .0049997966 .2690023 0 .24899292 0 .22699993 0 .20683289 .0023345948 .18849182 .007003784 .17016094 .011672974 .15382894 .023503622 .13949585 .042495729 .12516277 .061498006 .117996219 .09033203 .117996219 .1289978V.43099977H.05999756C.047332765 .43099977 .036834718 .4351654 .028503418 .4434967 .02017212 .451828 .01600647 .46233116 .01600647 .4750061 .01600647 .4876709 .02017212 .4980011 .028503418 .5059967 .036834718 .5140025 .047332765 .5180054 .05999756 .5180054H.117996219V.602005C.117996219 .615331 .12249756 .62665817 .13150025 .6359863 .14050293 .6453247 .15200298 .6499939 .16600037 .6499939 .17933655 .6499939 .1905009 .6453247 .19949341 .6359863 .2084961 .62665817 .21299744 .615331 .21299744 .602005V.5180054H.29600526C.30867005 .5180054 .3191681 .51383468 .3274994 .50549319 .3358307 .49716188 .33999635 .48666383 .33999635 .47399903 .33999635 .46133424 .3358307 .45099894 .3274994 .44299317 .3191681 .43499757 .30867005 .43099977 .29600526 .43099977H.21299744Z"/>
<path id="font_5_85" d="M.18200684 .04899597C.18200684 .034998578 .17700196 .023330689 .16699219 .01399231 .1569926 .004664103 .14532979 0 .13200379 0 .117335 0 .10549927 .004664103 .09649658 .01399231 .0874939 .023330689 .08299255 .034998578 .08299255 .04899597V.6519928C.08299255 .665329 .087656658 .6766612 .09698486 .6859894 .10632324 .69532778 .11832682 .69999697 .1329956 .69999697 .14633179 .69999697 .15783184 .69532778 .16749573 .6859894 .1771698 .6766612 .18200684 .665329 .18200684 .6519928V.04899597Z"/>
<path id="font_5_358" d="M.33799745 .5359955C.45800273 .5359955 .5180054 .46399943 .5180054 .32000733V.04800415C.5180054 .03466797 .513504 .023330689 .50450137 .01399231 .49549867 .004664103 .48399864 0 .47000123 0 .45666505 0 .4454956 .004664103 .43649293 .01399231 .4275004 .023330689 .42300416 .03466797 .42300416 .04800415V.31900025C.42300416 .3583374 .41400147 .3896688 .3959961 .41299439 .3780009 .43633018 .34866844 .44799806 .30799867 .44799806 .28133647 .44799806 .25717164 .4421641 .23550415 .43049623 .21383667 .41882835 .1968333 .40316264 .18449402 .38349916 .17216492 .36383567 .16600037 .34233604 .16600037 .31900025V.04800415C.16600037 .03466797 .16149903 .023330689 .15249634 .01399231 .14350383 .004664103 .13200379 0 .117996219 0 .10399882 0 .092666629 .0044962565 .083999637 .0134887699 .07533264 .022491456 .070999149 .033996583 .070999149 .04800415V.47599793C.070999149 .4893341 .07550049 .5006663 .084503177 .5099945 .09350586 .5193329 .104670207 .5240021 .117996219 .5240021 .13200379 .5240021 .14350383 .5193329 .15249634 .5099945 .16149903 .5006663 .16600037 .4893341 .16600037 .47599793V.44099427C.18333435 .46766664 .20749919 .49016825 .23849488 .50849917 .26950074 .52683 .30266825 .5359955 .33799745 .5359955Z"/>
<path id="font_5_461" d="M.47099305 .52900698C.483668 .52900698 .494339 .52483627 .503006 .51649478 .511673 .50816348 .51600649 .4983317 .51600649 .4869995 .51600649 .4809977 .5136719 .4726664 .5090027 .46200563L.31900025 .02999878C.31500245 .021331788 .30933634 .014333089 .30200196 .009002686 .29466758 .003672282 .28666688 .0006713867 .27799989 0 .2673289-.001332601 .25749208 .0006663005 .24848938 .005996704 .23949687 .01133728 .23266602 .019337973 .22799683 .02999878L.037994386 .46200563C.03466797 .47200523 .03300476 .48033653 .03300476 .4869995 .03300476 .4976705 .037338258 .5073395 .04600525 .51600649 .05467224 .52467349 .06600443 .52900698 .08000183 .52900698 .09000143 .52900698 .09899902 .5265045 .10699463 .52149966 .115000408 .51650497 .12133789 .5090027 .12600708 .49899293L.2769928 .147995 .42799378 .49899293C.43733216 .51900228 .45166526 .52900698 .47099305 .52900698Z"/>
<path id="font_5_417" d="M.041000368 .08200073C.034998578 .09132894 .03199768 .10032654 .03199768 .10899353 .03199768 .12232971 .03899638 .13366699 .052993776 .14300537 .05966695 .14766439 .067337039 .1499939 .07600403 .1499939 .08799744 .1499939 .098993938 .1449941 .10899353 .1349945 .12900289 .11233012 .15050252 .095331829 .17349243 .083999637 .19649251 .07266744 .22399394 .06700134 .2559967 .06700134 .28133647 .06766256 .30367027 .07349142 .32299806 .084487918 .34233604 .09549459 .352005 .113332118 .352005 .13800049 .352005 .16066487 .34216819 .17799378 .3224945 .18998719 .30283103 .20199077 .27399699 .21299744 .23599243 .2230072 .19865926 .23300679 .1676585 .24350484 .14299011 .25450135 .11833191 .26549784 .09749857 .28149415 .08049011 .30249024 .06349182 .3234965 .054992677 .35099793 .054992677 .3849945 .054992677 .4149933 .06349182 .44132487 .08049011 .46398927 .09749857 .48666383 .12016805 .5043335 .14849854 .5169983 .17682903 .5296631 .20766194 .5359955 .24099732 .5359955 .2730001 .5359955 .304835 .5299937 .33650209 .5179901 .36816917 .5059967 .3940023 .4876658 .41400147 .46299745 .42199708 .45366923 .42599488 .44400535 .42599488 .43400575 .42599488 .42333476 .42066447 .41299949 .41000367 .40299989 .40333048 .39699809 .3949941 .3939972 .3849945 .3939972 .3730011 .3939972 .3633372 .3980001 .3560028 .40600587 .3420054 .42199708 .32483927 .43432618 .3045044 .44299317 .28416953 .45166017 .26166789 .45599366 .23699951 .45599366 .21166992 .45599366 .19017029 .45082603 .17250061 .44049073 .15483094 .43016563 .1459961 .41266886 .1459961 .3880005 .14666748 .3646647 .15683492 .34733073 .17649842 .33599855 .19616191 .32466636 .22632854 .31366477 .2669983 .30299378 .30233766 .29366557 .33167015 .28366599 .35499574 .272995 .3783315 .2623342 .3980001 .24650066 .41400147 .22549439 .43000285 .20449829 .43800355 .17700196 .43800355 .14300537 .43800355 .11166382 .42900086 .084493007 .41099549 .06149292 .39300028 .03849284 .36950175 .020828248 .34049989 .0084991459 .31149803-.003829956 .28066508-.009994507 .2480011-.009994507 .20599874-.009994507 .16716512-.002665202 .13150025 .011993408 .095835369 .026662192 .06566874 .049997968 .041000368 .08200073Z"/>
</defs>
<g clip-path="url(#clip_0)">
<path transform="matrix(.75,0,0,.75,-1.53,-104.92999)" d="M0 0H500V500H0Z" fill="#ffffff"/>
</g>
<g clip-path="url(#clip_1)">
<path transform="matrix(.75,0,0,.75,-1.53,-104.92999)" d="M0 0H500V500H0Z"/>
</g>
<g clip-path="url(#clip_2)">
<path transform="matrix(.56147119,0,0,.56147119,-1.53,-2.5463105)" d="M0 0H668V256H0Z" fill="#ffffff"/>
</g>
<g clip-path="url(#clip_3)">
<use data-text="P" xlink:href="#font_4_51" transform="matrix(85.677318,0,0,-85.677318,12.896925,82.62156)"/>
<use data-text="o" xlink:href="#font_4_82" transform="matrix(85.677318,0,0,-85.677318,61.891725,82.62156)"/>
<use data-text="r" xlink:href="#font_4_85" transform="matrix(85.677318,0,0,-85.677318,110.45824,82.62156)"/>
<use data-text="t" xlink:href="#font_4_87" transform="matrix(85.677318,0,0,-85.677318,145.06227,82.62156)"/>
<use data-text="f" xlink:href="#font_4_73" transform="matrix(85.677318,0,0,-85.677318,170.84339,82.62156)"/>
<use data-text="o" xlink:href="#font_4_82" transform="matrix(85.677318,0,0,-85.677318,194.91132,82.62156)"/>
<use data-text="l" xlink:href="#font_4_79" transform="matrix(85.677318,0,0,-85.677318,243.47783,82.62156)"/>
<use data-text="i" xlink:href="#font_4_76" transform="matrix(85.677318,0,0,-85.677318,260.86433,82.62156)"/>
<use data-text="a" xlink:href="#font_4_68" transform="matrix(85.677318,0,0,-85.677318,278.67915,82.62156)"/>
<use data-text="." xlink:href="#font_4_17" transform="matrix(85.677318,0,0,-85.677318,329.13014,82.62156)"/>
<use data-text="M" xlink:href="#font_5_116" transform="matrix(13.305,0,0,-13.305,18.336094,114.94214)"/>
<use data-text="a" xlink:href="#font_5_243" transform="matrix(13.305,0,0,-13.305,35.976018,114.94214)"/>
<use data-text="k" xlink:href="#font_5_344" transform="matrix(13.305,0,0,-13.305,50.84939,114.94214)"/>
<use data-text="e" xlink:href="#font_5_286" transform="matrix(13.305,0,0,-13.305,64.93802,114.94214)"/>
<use data-text=" " xlink:href="#font_5_3" transform="matrix(13.305,0,0,-13.305,79.22616,114.94214)"/>
<use data-text="S" xlink:href="#font_5_177" transform="matrix(13.305,0,0,-13.305,89.617198,114.94214)"/>
<use data-text="m" xlink:href="#font_5_356" transform="matrix(13.305,0,0,-13.305,104.06493,114.94214)"/>
<use data-text="a" xlink:href="#font_5_243" transform="matrix(13.305,0,0,-13.305,122.98172,114.94214)"/>
<use data-text="r" xlink:href="#font_5_409" transform="matrix(13.305,0,0,-13.305,137.85509,114.94214)"/>
<use data-text="t" xlink:href="#font_5_429" transform="matrix(13.305,0,0,-13.305,150.05501,114.94214)"/>
<use data-text="e" xlink:href="#font_5_286" transform="matrix(13.305,0,0,-13.305,161.81601,114.94214)"/>
<use data-text="r" xlink:href="#font_5_409" transform="matrix(13.305,0,0,-13.305,176.10416,114.94214)"/>
<use data-text=" " xlink:href="#font_5_3" transform="matrix(13.305,0,0,-13.305,188.30408,114.94214)"/>
<use data-text="I" xlink:href="#font_5_85" transform="matrix(13.305,0,0,-13.305,198.69512,114.94214)"/>
<use data-text="n" xlink:href="#font_5_358" transform="matrix(13.305,0,0,-13.305,208.92655,114.94214)"/>
<use data-text="v" xlink:href="#font_5_461" transform="matrix(13.305,0,0,-13.305,223.4674,114.94214)"/>
<use data-text="e" xlink:href="#font_5_286" transform="matrix(13.305,0,0,-13.305,237.46292,114.94214)"/>
<use data-text="s" xlink:href="#font_5_417" transform="matrix(13.305,0,0,-13.305,251.75107,114.94214)"/>
<use data-text="t" xlink:href="#font_5_429" transform="matrix(13.305,0,0,-13.305,264.80226,114.94214)"/>
<use data-text="m" xlink:href="#font_5_356" transform="matrix(13.305,0,0,-13.305,276.56327,114.94214)"/>
<use data-text="e" xlink:href="#font_5_286" transform="matrix(13.305,0,0,-13.305,295.48,114.94214)"/>
<use data-text="n" xlink:href="#font_5_358" transform="matrix(13.305,0,0,-13.305,309.76817,114.94214)"/>
<use data-text="t" xlink:href="#font_5_429" transform="matrix(13.305,0,0,-13.305,324.30903,114.94214)"/>
<use data-text="s" xlink:href="#font_5_417" transform="matrix(13.305,0,0,-13.305,336.07,114.94214)"/>
</g>
</svg>
